<?xml version="1.0" encoding="UTF-8" standalone="no"?>
<!-- Created with Inkscape (http://www.inkscape.org/) -->

<svg
   xmlns:dc="http://purl.org/dc/elements/1.1/"
   xmlns:cc="http://creativecommons.org/ns#"
   xmlns:rdf="http://www.w3.org/1999/02/22-rdf-syntax-ns#"
   xmlns:svg="http://www.w3.org/2000/svg"
   xmlns="http://www.w3.org/2000/svg"
   xmlns:sodipodi="http://sodipodi.sourceforge.net/DTD/sodipodi-0.dtd"
   xmlns:inkscape="http://www.inkscape.org/namespaces/inkscape"
   width="400mm"
   height="100mm"
   viewBox="4 1 400 100"
   version="1.1"
   id="svg8"
   inkscape:export-filename="/data/projects/webapps/perusals-frontend/src/assets/img/ess-logo.png"
   inkscape:export-xdpi="96"
   inkscape:export-ydpi="96"
   inkscape:version="0.92.5 (2060ec1f9f, 2020-04-08)"
   sodipodi:docname="ess-logo.svg">
  <defs
     id="defs2" />
  <sodipodi:namedview
     id="base"
     pagecolor="#ffffff"
     bordercolor="#666666"
     borderopacity="1.0"
     inkscape:pageopacity="0.0"
     inkscape:pageshadow="2"
     inkscape:zoom="0.7"
     inkscape:cx="-362.41554"
     inkscape:cy="87.429652"
     inkscape:document-units="mm"
     inkscape:current-layer="layer1"
     showgrid="false"
     viewbox-x="4"
     viewbox-y="1"
     viewbox-width="210"
     inkscape:window-width="3840"
     inkscape:window-height="2062"
     inkscape:window-x="0"
     inkscape:window-y="0"
     inkscape:window-maximized="1" />
  <metadata
     id="metadata5">
    <rdf:RDF>
      <cc:Work
         rdf:about="">
        <dc:format>image/svg+xml</dc:format>
        <dc:type
           rdf:resource="http://purl.org/dc/dcmitype/StillImage" />
        <dc:title></dc:title>
      </cc:Work>
    </rdf:RDF>
  </metadata>
  <g
     inkscape:label="Ebene 1"
     inkscape:groupmode="layer"
     id="layer1"
     transform="translate(0,-197)">
    <g
       id="g8"
       transform="matrix(1.1089892,0,0,1.1089892,16.596512,194.49346)"
       style="fill:#554400">
      <path
         d="m 71.5,18.9 c 0.3,-0.7 0.5,-1.5 0.5,-2.3 0,-3.2 -2.6,-5.8 -5.8,-5.8 -3.2,0 -5.8,2.6 -5.8,5.8 0,3.2 2.6,5.8 5.8,5.8 1,0 2,-0.3 2.8,-0.7 6.3,6.2 9.9,14.6 9.9,23.5 C 78.9,63.3 64.2,78 46,78 27.8,78 13.2,63.3 13.2,45.1 c 0,-6.9 2.2,-13.6 6.2,-19.2 0.6,0.2 1.3,0.4 2.1,0.4 3.2,0 5.8,-2.6 5.8,-5.8 0,-3.2 -2.6,-5.8 -5.8,-5.8 -3.2,0 -5.8,2.6 -5.8,5.8 0,1.1 0.3,2.1 0.8,3 -4.6,6.2 -7.1,13.8 -7.1,21.6 0,20.2 16.4,36.6 36.6,36.6 20.2,0 36.6,-16.4 36.6,-36.6 0.1,-9.9 -4,-19.3 -11.1,-26.2 z"
         id="path2"
         inkscape:connector-curvature="0"
         style="fill:#554400" />
      <path
         d="m 27,35 c 0,1.7 0.7,3.2 1.9,4.3 -0.6,1.9 -1,3.8 -1,5.8 0,10 8.1,18.1 18.1,18.1 10,0 18.1,-8.1 18.1,-18.1 0,-2.8 -0.6,-5.5 -1.9,-8 0.7,-1 1.1,-2.2 1.1,-3.4 0,-3.2 -2.6,-5.8 -5.8,-5.8 -3.2,0 -5.8,2.6 -5.8,5.8 0,3.2 2.6,5.8 5.8,5.8 0.5,0 1,-0.1 1.5,-0.2 0.8,1.8 1.2,3.8 1.2,5.9 0,7.9 -6.4,14.3 -14.3,14.3 -7.9,0 -14.3,-6.4 -14.3,-14.3 0,-1.5 0.2,-3 0.7,-4.4 0.1,0 0.3,0 0.4,0 3.2,0 5.8,-2.6 5.8,-5.8 0,-3.2 -2.6,-5.8 -5.8,-5.8 -3.2,0 -5.7,2.6 -5.7,5.8 z"
         id="path4"
         inkscape:connector-curvature="0"
         style="fill:#554400" />
      <path
         d="m 27.3,52 c 0,-3.2 -2.6,-5.8 -5.8,-5.8 -3.2,0 -5.8,2.6 -5.8,5.8 0,3.2 2.6,5.8 5.8,5.8 0.2,0 0.4,0 0.5,0 4.7,8.9 13.9,14.6 24.1,14.6 15,0 27.1,-12.2 27.1,-27.1 0,-7.3 -2.8,-14.1 -8,-19.2 -4.7,-4.7 -10.9,-7.5 -17.5,-7.9 -0.6,-2.6 -2.9,-4.5 -5.7,-4.5 -3.2,0 -5.8,2.6 -5.8,5.8 0,3.2 2.6,5.8 5.8,5.8 2.3,0 4.3,-1.4 5.3,-3.4 5.8,0.3 11.1,2.7 15.2,6.8 4.4,4.4 6.9,10.3 6.9,16.5 0,12.9 -10.4,23.3 -23.4,23.3 -8.7,0 -16.6,-4.8 -20.6,-12.4 1.1,-1 1.9,-2.5 1.9,-4.1 z"
         id="path6"
         inkscape:connector-curvature="0"
         style="fill:#554400" />
    </g>
    <text
       xml:space="preserve"
       style="font-style:normal;font-variant:normal;font-weight:normal;font-stretch:normal;font-size:50.79999924px;line-height:1.25;font-family:Ubuntu;-inkscape-font-specification:Ubuntu;letter-spacing:0px;word-spacing:0px;fill:#554400;fill-opacity:1;stroke:none;stroke-width:0.26458332;"
       x="135.15775"
       y="263.60416"
       id="text829"><tspan
         sodipodi:role="line"
         id="tspan827"
         x="135.15775"
         y="263.60416"
         style="font-style:normal;font-variant:normal;font-weight:normal;font-stretch:normal;font-size:50.79999924px;font-family:Ubuntu;-inkscape-font-specification:Ubuntu;stroke-width:0.26458332;fill:#554400;">Kollegium</tspan></text>
  </g>
</svg>
